<mxfile host="app.diagrams.net" modified="2023-11-22T03:03:25.066Z" agent="Mozilla/5.0 (Windows NT 10.0; Win64; x64) AppleWebKit/537.36 (KHTML, like Gecko) Chrome/119.0.0.0 Safari/537.36" etag="5ugWeXuDgAonjVuwi9_v" version="22.1.3" type="device">
  <diagram name="Page-1" id="nBPwqLHWkmxJUTbzMWt1">
    <mxGraphModel dx="1994" dy="593" grid="1" gridSize="10" guides="1" tooltips="1" connect="1" arrows="1" fold="1" page="1" pageScale="1" pageWidth="827" pageHeight="1169" math="0" shadow="0">
      <root>
        <mxCell id="0" />
        <mxCell id="1" parent="0" />
        <mxCell id="PcnVN6I63D8khblwUy3k-21" style="edgeStyle=orthogonalEdgeStyle;rounded=0;orthogonalLoop=1;jettySize=auto;html=1;exitX=1;exitY=0.5;exitDx=0;exitDy=0;entryX=0;entryY=0.5;entryDx=0;entryDy=0;" parent="1" source="PcnVN6I63D8khblwUy3k-1" target="PcnVN6I63D8khblwUy3k-7" edge="1">
          <mxGeometry relative="1" as="geometry" />
        </mxCell>
        <mxCell id="PcnVN6I63D8khblwUy3k-1" value="Donor" style="rounded=0;whiteSpace=wrap;html=1;" parent="1" vertex="1">
          <mxGeometry x="-190" y="270" width="120" height="60" as="geometry" />
        </mxCell>
        <mxCell id="PcnVN6I63D8khblwUy3k-2" value="Hospital" style="rounded=0;whiteSpace=wrap;html=1;" parent="1" vertex="1">
          <mxGeometry x="300" y="710" width="120" height="60" as="geometry" />
        </mxCell>
        <mxCell id="G0BQyAmhGXYiiG6_lD7f-35" style="edgeStyle=orthogonalEdgeStyle;rounded=0;orthogonalLoop=1;jettySize=auto;html=1;exitX=0;exitY=0.5;exitDx=0;exitDy=0;entryX=0.5;entryY=1;entryDx=0;entryDy=0;" parent="1" source="PcnVN6I63D8khblwUy3k-3" target="PcnVN6I63D8khblwUy3k-28" edge="1">
          <mxGeometry relative="1" as="geometry" />
        </mxCell>
        <mxCell id="G0BQyAmhGXYiiG6_lD7f-47" style="edgeStyle=orthogonalEdgeStyle;rounded=0;orthogonalLoop=1;jettySize=auto;html=1;exitX=0;exitY=0.25;exitDx=0;exitDy=0;" parent="1" source="PcnVN6I63D8khblwUy3k-3" target="G0BQyAmhGXYiiG6_lD7f-46" edge="1">
          <mxGeometry relative="1" as="geometry" />
        </mxCell>
        <mxCell id="PcnVN6I63D8khblwUy3k-3" value="Blood Bank/Admin&lt;br&gt;" style="rounded=0;whiteSpace=wrap;html=1;" parent="1" vertex="1">
          <mxGeometry x="720" y="650" width="120" height="60" as="geometry" />
        </mxCell>
        <mxCell id="G0BQyAmhGXYiiG6_lD7f-6" style="edgeStyle=orthogonalEdgeStyle;rounded=0;orthogonalLoop=1;jettySize=auto;html=1;entryX=1;entryY=1;entryDx=0;entryDy=0;" parent="1" source="PcnVN6I63D8khblwUy3k-7" target="PcnVN6I63D8khblwUy3k-1" edge="1">
          <mxGeometry relative="1" as="geometry">
            <mxPoint x="360" y="200" as="targetPoint" />
            <Array as="points">
              <mxPoint x="360" y="200" />
              <mxPoint x="-10" y="200" />
              <mxPoint x="-10" y="330" />
            </Array>
          </mxGeometry>
        </mxCell>
        <mxCell id="G0BQyAmhGXYiiG6_lD7f-21" style="edgeStyle=orthogonalEdgeStyle;rounded=0;orthogonalLoop=1;jettySize=auto;html=1;exitX=1;exitY=0.5;exitDx=0;exitDy=0;entryX=0.5;entryY=0;entryDx=0;entryDy=0;" parent="1" source="PcnVN6I63D8khblwUy3k-7" target="PcnVN6I63D8khblwUy3k-28" edge="1">
          <mxGeometry relative="1" as="geometry" />
        </mxCell>
        <mxCell id="G0BQyAmhGXYiiG6_lD7f-42" style="edgeStyle=orthogonalEdgeStyle;rounded=0;orthogonalLoop=1;jettySize=auto;html=1;exitX=0.5;exitY=1;exitDx=0;exitDy=0;" parent="1" source="PcnVN6I63D8khblwUy3k-7" target="G0BQyAmhGXYiiG6_lD7f-39" edge="1">
          <mxGeometry relative="1" as="geometry" />
        </mxCell>
        <mxCell id="PcnVN6I63D8khblwUy3k-7" value="Donation&amp;nbsp; request Management." style="ellipse;whiteSpace=wrap;html=1;" parent="1" vertex="1">
          <mxGeometry x="300" y="310" width="120" height="80" as="geometry" />
        </mxCell>
        <mxCell id="PcnVN6I63D8khblwUy3k-20" style="edgeStyle=orthogonalEdgeStyle;rounded=0;orthogonalLoop=1;jettySize=auto;html=1;entryX=0.75;entryY=1;entryDx=0;entryDy=0;exitX=0.258;exitY=0.925;exitDx=0;exitDy=0;exitPerimeter=0;" parent="1" source="PcnVN6I63D8khblwUy3k-7" target="PcnVN6I63D8khblwUy3k-1" edge="1">
          <mxGeometry relative="1" as="geometry">
            <mxPoint x="330" y="400" as="sourcePoint" />
            <Array as="points">
              <mxPoint x="331" y="400" />
              <mxPoint x="-100" y="400" />
            </Array>
          </mxGeometry>
        </mxCell>
        <mxCell id="PcnVN6I63D8khblwUy3k-23" style="edgeStyle=orthogonalEdgeStyle;rounded=0;orthogonalLoop=1;jettySize=auto;html=1;entryX=1;entryY=0;entryDx=0;entryDy=0;" parent="1" source="PcnVN6I63D8khblwUy3k-16" target="PcnVN6I63D8khblwUy3k-28" edge="1">
          <mxGeometry relative="1" as="geometry">
            <Array as="points">
              <mxPoint x="582" y="370" />
            </Array>
          </mxGeometry>
        </mxCell>
        <mxCell id="G0BQyAmhGXYiiG6_lD7f-27" style="edgeStyle=orthogonalEdgeStyle;rounded=0;orthogonalLoop=1;jettySize=auto;html=1;exitX=1;exitY=1;exitDx=0;exitDy=0;entryX=0;entryY=0.75;entryDx=0;entryDy=0;" parent="1" source="PcnVN6I63D8khblwUy3k-16" target="PcnVN6I63D8khblwUy3k-17" edge="1">
          <mxGeometry relative="1" as="geometry" />
        </mxCell>
        <mxCell id="G0BQyAmhGXYiiG6_lD7f-31" style="edgeStyle=orthogonalEdgeStyle;rounded=0;orthogonalLoop=1;jettySize=auto;html=1;exitX=0;exitY=0.5;exitDx=0;exitDy=0;entryX=1;entryY=0.5;entryDx=0;entryDy=0;" parent="1" source="PcnVN6I63D8khblwUy3k-16" target="PcnVN6I63D8khblwUy3k-28" edge="1">
          <mxGeometry relative="1" as="geometry" />
        </mxCell>
        <mxCell id="G0BQyAmhGXYiiG6_lD7f-33" style="edgeStyle=orthogonalEdgeStyle;rounded=0;orthogonalLoop=1;jettySize=auto;html=1;entryX=0.5;entryY=0;entryDx=0;entryDy=0;" parent="1" source="PcnVN6I63D8khblwUy3k-16" target="PcnVN6I63D8khblwUy3k-17" edge="1">
          <mxGeometry relative="1" as="geometry">
            <mxPoint x="780" y="290.0000000000001" as="targetPoint" />
            <Array as="points">
              <mxPoint x="780" y="330" />
              <mxPoint x="1010" y="330" />
            </Array>
          </mxGeometry>
        </mxCell>
        <mxCell id="PcnVN6I63D8khblwUy3k-16" value="Blood Request Management" style="ellipse;whiteSpace=wrap;html=1;" parent="1" vertex="1">
          <mxGeometry x="720" y="350" width="120" height="80" as="geometry" />
        </mxCell>
        <mxCell id="PcnVN6I63D8khblwUy3k-18" style="edgeStyle=orthogonalEdgeStyle;rounded=0;orthogonalLoop=1;jettySize=auto;html=1;entryX=1;entryY=0.5;entryDx=0;entryDy=0;" parent="1" source="PcnVN6I63D8khblwUy3k-17" target="PcnVN6I63D8khblwUy3k-16" edge="1">
          <mxGeometry relative="1" as="geometry" />
        </mxCell>
        <mxCell id="PcnVN6I63D8khblwUy3k-17" value="Recipient" style="rounded=0;whiteSpace=wrap;html=1;" parent="1" vertex="1">
          <mxGeometry x="950" y="360" width="120" height="60" as="geometry" />
        </mxCell>
        <mxCell id="G0BQyAmhGXYiiG6_lD7f-37" style="edgeStyle=orthogonalEdgeStyle;rounded=0;orthogonalLoop=1;jettySize=auto;html=1;exitX=1;exitY=1;exitDx=0;exitDy=0;entryX=0;entryY=0;entryDx=0;entryDy=0;" parent="1" source="PcnVN6I63D8khblwUy3k-28" target="PcnVN6I63D8khblwUy3k-3" edge="1">
          <mxGeometry relative="1" as="geometry" />
        </mxCell>
        <mxCell id="PcnVN6I63D8khblwUy3k-28" value="Stock Update" style="ellipse;whiteSpace=wrap;html=1;" parent="1" vertex="1">
          <mxGeometry x="480" y="390" width="120" height="80" as="geometry" />
        </mxCell>
        <mxCell id="G0BQyAmhGXYiiG6_lD7f-5" style="edgeStyle=orthogonalEdgeStyle;rounded=0;orthogonalLoop=1;jettySize=auto;html=1;exitX=1;exitY=0.5;exitDx=0;exitDy=0;exitPerimeter=0;entryX=0;entryY=1;entryDx=0;entryDy=0;" parent="1" source="G0BQyAmhGXYiiG6_lD7f-1" target="PcnVN6I63D8khblwUy3k-7" edge="1">
          <mxGeometry relative="1" as="geometry">
            <Array as="points">
              <mxPoint x="260" y="695" />
              <mxPoint x="260" y="378" />
            </Array>
          </mxGeometry>
        </mxCell>
        <mxCell id="G0BQyAmhGXYiiG6_lD7f-1" value="User&lt;br&gt;&amp;nbsp;Database" style="shape=cylinder3;whiteSpace=wrap;html=1;boundedLbl=1;backgroundOutline=1;size=15;" parent="1" vertex="1">
          <mxGeometry x="-40" y="620" width="130" height="150" as="geometry" />
        </mxCell>
        <mxCell id="G0BQyAmhGXYiiG6_lD7f-2" style="edgeStyle=orthogonalEdgeStyle;rounded=0;orthogonalLoop=1;jettySize=auto;html=1;exitX=0.25;exitY=1;exitDx=0;exitDy=0;entryX=0;entryY=0.5;entryDx=0;entryDy=0;entryPerimeter=0;" parent="1" source="PcnVN6I63D8khblwUy3k-1" target="G0BQyAmhGXYiiG6_lD7f-1" edge="1">
          <mxGeometry relative="1" as="geometry">
            <Array as="points">
              <mxPoint x="-60" y="380" />
              <mxPoint x="-60" y="695" />
            </Array>
          </mxGeometry>
        </mxCell>
        <mxCell id="G0BQyAmhGXYiiG6_lD7f-7" value="Eligibility feedback" style="text;html=1;align=center;verticalAlign=middle;resizable=0;points=[];autosize=1;strokeColor=none;fillColor=none;" parent="1" vertex="1">
          <mxGeometry x="110" y="158" width="120" height="30" as="geometry" />
        </mxCell>
        <mxCell id="G0BQyAmhGXYiiG6_lD7f-8" value="Request for donation" style="text;html=1;align=center;verticalAlign=middle;resizable=0;points=[];autosize=1;strokeColor=none;fillColor=none;" parent="1" vertex="1">
          <mxGeometry x="140" y="320" width="130" height="30" as="geometry" />
        </mxCell>
        <mxCell id="G0BQyAmhGXYiiG6_lD7f-9" value="Donation date" style="text;html=1;align=center;verticalAlign=middle;resizable=0;points=[];autosize=1;strokeColor=none;fillColor=none;" parent="1" vertex="1">
          <mxGeometry x="-30" y="375" width="100" height="30" as="geometry" />
        </mxCell>
        <mxCell id="G0BQyAmhGXYiiG6_lD7f-10" value="Donor Information" style="text;html=1;align=center;verticalAlign=middle;resizable=0;points=[];autosize=1;strokeColor=none;fillColor=none;rotation=-90;" parent="1" vertex="1">
          <mxGeometry x="-230" y="390" width="120" height="30" as="geometry" />
        </mxCell>
        <mxCell id="G0BQyAmhGXYiiG6_lD7f-11" value="Successful donation?" style="text;html=1;align=center;verticalAlign=middle;resizable=0;points=[];autosize=1;strokeColor=none;fillColor=none;" parent="1" vertex="1">
          <mxGeometry x="430" y="320" width="140" height="30" as="geometry" />
        </mxCell>
        <mxCell id="G0BQyAmhGXYiiG6_lD7f-12" value="Send Donor Information" style="text;html=1;align=center;verticalAlign=middle;resizable=0;points=[];autosize=1;strokeColor=none;fillColor=none;" parent="1" vertex="1">
          <mxGeometry x="85" y="658" width="150" height="30" as="geometry" />
        </mxCell>
        <mxCell id="G0BQyAmhGXYiiG6_lD7f-17" value="Free slots" style="text;html=1;align=center;verticalAlign=middle;resizable=0;points=[];autosize=1;strokeColor=none;fillColor=none;rotation=90;" parent="1" vertex="1">
          <mxGeometry x="350" y="598" width="80" height="30" as="geometry" />
        </mxCell>
        <mxCell id="G0BQyAmhGXYiiG6_lD7f-19" value="is slots available?" style="text;html=1;align=center;verticalAlign=middle;resizable=0;points=[];autosize=1;strokeColor=none;fillColor=none;rotation=-90;" parent="1" vertex="1">
          <mxGeometry x="254" y="628" width="120" height="30" as="geometry" />
        </mxCell>
        <mxCell id="G0BQyAmhGXYiiG6_lD7f-24" value="Place Blood request" style="text;html=1;align=center;verticalAlign=middle;resizable=0;points=[];autosize=1;strokeColor=none;fillColor=none;" parent="1" vertex="1">
          <mxGeometry x="827" y="360" width="130" height="30" as="geometry" />
        </mxCell>
        <mxCell id="G0BQyAmhGXYiiG6_lD7f-25" value="Blood availability" style="text;html=1;align=center;verticalAlign=middle;resizable=0;points=[];autosize=1;strokeColor=none;fillColor=none;rotation=0;" parent="1" vertex="1">
          <mxGeometry x="580" y="335" width="110" height="30" as="geometry" />
        </mxCell>
        <mxCell id="G0BQyAmhGXYiiG6_lD7f-28" value="Blood dispatch details" style="text;html=1;align=center;verticalAlign=middle;resizable=0;points=[];autosize=1;strokeColor=none;fillColor=none;" parent="1" vertex="1">
          <mxGeometry x="810" y="415" width="140" height="30" as="geometry" />
        </mxCell>
        <mxCell id="G0BQyAmhGXYiiG6_lD7f-29" style="edgeStyle=orthogonalEdgeStyle;rounded=0;orthogonalLoop=1;jettySize=auto;html=1;exitX=0.5;exitY=1;exitDx=0;exitDy=0;entryX=1;entryY=1;entryDx=0;entryDy=-15;entryPerimeter=0;" parent="1" source="PcnVN6I63D8khblwUy3k-17" target="G0BQyAmhGXYiiG6_lD7f-1" edge="1">
          <mxGeometry relative="1" as="geometry">
            <Array as="points">
              <mxPoint x="1010" y="820" />
              <mxPoint x="90" y="820" />
            </Array>
          </mxGeometry>
        </mxCell>
        <mxCell id="G0BQyAmhGXYiiG6_lD7f-30" value="Recipient Information" style="text;html=1;align=center;verticalAlign=middle;resizable=0;points=[];autosize=1;strokeColor=none;fillColor=none;" parent="1" vertex="1">
          <mxGeometry x="470" y="788" width="140" height="30" as="geometry" />
        </mxCell>
        <mxCell id="G0BQyAmhGXYiiG6_lD7f-32" value="If Blood delivered" style="text;html=1;align=center;verticalAlign=middle;resizable=0;points=[];autosize=1;strokeColor=none;fillColor=none;" parent="1" vertex="1">
          <mxGeometry x="590" y="430" width="120" height="30" as="geometry" />
        </mxCell>
        <mxCell id="G0BQyAmhGXYiiG6_lD7f-34" value="Blood availability" style="text;html=1;align=center;verticalAlign=middle;resizable=0;points=[];autosize=1;strokeColor=none;fillColor=none;" parent="1" vertex="1">
          <mxGeometry x="835" y="298" width="110" height="30" as="geometry" />
        </mxCell>
        <mxCell id="G0BQyAmhGXYiiG6_lD7f-36" value="Inventory Update" style="text;html=1;align=center;verticalAlign=middle;resizable=0;points=[];autosize=1;strokeColor=none;fillColor=none;rotation=90;" parent="1" vertex="1">
          <mxGeometry x="495" y="588" width="110" height="30" as="geometry" />
        </mxCell>
        <mxCell id="G0BQyAmhGXYiiG6_lD7f-38" value="Report" style="text;html=1;align=center;verticalAlign=middle;resizable=0;points=[];autosize=1;strokeColor=none;fillColor=none;rotation=-90;" parent="1" vertex="1">
          <mxGeometry x="670" y="558" width="60" height="30" as="geometry" />
        </mxCell>
        <mxCell id="G0BQyAmhGXYiiG6_lD7f-40" style="edgeStyle=orthogonalEdgeStyle;rounded=0;orthogonalLoop=1;jettySize=auto;html=1;exitX=0;exitY=1;exitDx=0;exitDy=0;entryX=0.25;entryY=0;entryDx=0;entryDy=0;" parent="1" source="G0BQyAmhGXYiiG6_lD7f-39" target="PcnVN6I63D8khblwUy3k-2" edge="1">
          <mxGeometry relative="1" as="geometry" />
        </mxCell>
        <mxCell id="G0BQyAmhGXYiiG6_lD7f-41" style="edgeStyle=orthogonalEdgeStyle;rounded=0;orthogonalLoop=1;jettySize=auto;html=1;entryX=0.5;entryY=0;entryDx=0;entryDy=0;" parent="1" source="G0BQyAmhGXYiiG6_lD7f-39" target="PcnVN6I63D8khblwUy3k-2" edge="1">
          <mxGeometry relative="1" as="geometry" />
        </mxCell>
        <mxCell id="G0BQyAmhGXYiiG6_lD7f-44" style="edgeStyle=orthogonalEdgeStyle;rounded=0;orthogonalLoop=1;jettySize=auto;html=1;exitX=1;exitY=0;exitDx=0;exitDy=0;entryX=1;entryY=1;entryDx=0;entryDy=0;" parent="1" source="G0BQyAmhGXYiiG6_lD7f-39" target="PcnVN6I63D8khblwUy3k-7" edge="1">
          <mxGeometry relative="1" as="geometry" />
        </mxCell>
        <mxCell id="G0BQyAmhGXYiiG6_lD7f-53" style="edgeStyle=orthogonalEdgeStyle;rounded=0;orthogonalLoop=1;jettySize=auto;html=1;exitX=1;exitY=1;exitDx=0;exitDy=0;" parent="1" source="G0BQyAmhGXYiiG6_lD7f-39" edge="1">
          <mxGeometry relative="1" as="geometry">
            <mxPoint x="460" y="870" as="targetPoint" />
          </mxGeometry>
        </mxCell>
        <mxCell id="G0BQyAmhGXYiiG6_lD7f-39" value="Slot request" style="ellipse;whiteSpace=wrap;html=1;" parent="1" vertex="1">
          <mxGeometry x="310" y="492" width="120" height="80" as="geometry" />
        </mxCell>
        <mxCell id="G0BQyAmhGXYiiG6_lD7f-43" value="Slot requests." style="text;html=1;align=center;verticalAlign=middle;resizable=0;points=[];autosize=1;strokeColor=none;fillColor=none;rotation=90;" parent="1" vertex="1">
          <mxGeometry x="330" y="438" width="100" height="30" as="geometry" />
        </mxCell>
        <mxCell id="G0BQyAmhGXYiiG6_lD7f-45" value="response" style="text;html=1;align=center;verticalAlign=middle;resizable=0;points=[];autosize=1;strokeColor=none;fillColor=none;rotation=90;" parent="1" vertex="1">
          <mxGeometry x="390" y="440" width="70" height="30" as="geometry" />
        </mxCell>
        <mxCell id="G0BQyAmhGXYiiG6_lD7f-51" style="edgeStyle=orthogonalEdgeStyle;rounded=0;orthogonalLoop=1;jettySize=auto;html=1;exitX=1;exitY=0.5;exitDx=0;exitDy=0;entryX=0.25;entryY=0;entryDx=0;entryDy=0;" parent="1" source="G0BQyAmhGXYiiG6_lD7f-46" target="PcnVN6I63D8khblwUy3k-3" edge="1">
          <mxGeometry relative="1" as="geometry" />
        </mxCell>
        <mxCell id="G0BQyAmhGXYiiG6_lD7f-46" value="Search Donor" style="ellipse;whiteSpace=wrap;html=1;" parent="1" vertex="1">
          <mxGeometry x="570" y="478" width="120" height="80" as="geometry" />
        </mxCell>
        <mxCell id="G0BQyAmhGXYiiG6_lD7f-48" value="Search donor&lt;br&gt;" style="text;html=1;align=center;verticalAlign=middle;resizable=0;points=[];autosize=1;strokeColor=none;fillColor=none;rotation=-89;" parent="1" vertex="1">
          <mxGeometry x="560" y="598" width="100" height="30" as="geometry" />
        </mxCell>
        <mxCell id="G0BQyAmhGXYiiG6_lD7f-49" style="edgeStyle=orthogonalEdgeStyle;rounded=0;orthogonalLoop=1;jettySize=auto;html=1;exitX=0;exitY=0.5;exitDx=0;exitDy=0;entryX=0.983;entryY=0.687;entryDx=0;entryDy=0;entryPerimeter=0;" parent="1" source="G0BQyAmhGXYiiG6_lD7f-46" target="PcnVN6I63D8khblwUy3k-7" edge="1">
          <mxGeometry relative="1" as="geometry">
            <Array as="points">
              <mxPoint x="450" y="518" />
              <mxPoint x="450" y="365" />
            </Array>
          </mxGeometry>
        </mxCell>
        <mxCell id="G0BQyAmhGXYiiG6_lD7f-50" value="Donor found?" style="text;html=1;align=center;verticalAlign=middle;resizable=0;points=[];autosize=1;strokeColor=none;fillColor=none;" parent="1" vertex="1">
          <mxGeometry x="430" y="518" width="100" height="30" as="geometry" />
        </mxCell>
        <mxCell id="G0BQyAmhGXYiiG6_lD7f-52" value="Blood procurement report" style="text;html=1;align=center;verticalAlign=middle;resizable=0;points=[];autosize=1;strokeColor=none;fillColor=none;rotation=90;" parent="1" vertex="1">
          <mxGeometry x="680" y="558" width="160" height="30" as="geometry" />
        </mxCell>
        <mxCell id="G0BQyAmhGXYiiG6_lD7f-54" value="Slot request Database&lt;br&gt;" style="shape=cylinder3;whiteSpace=wrap;html=1;boundedLbl=1;backgroundOutline=1;size=15;" parent="1" vertex="1">
          <mxGeometry x="400" y="870" width="130" height="150" as="geometry" />
        </mxCell>
        <mxCell id="G0BQyAmhGXYiiG6_lD7f-58" style="edgeStyle=orthogonalEdgeStyle;rounded=0;orthogonalLoop=1;jettySize=auto;html=1;exitX=0;exitY=0;exitDx=0;exitDy=52.5;exitPerimeter=0;" parent="1" source="G0BQyAmhGXYiiG6_lD7f-55" edge="1">
          <mxGeometry relative="1" as="geometry">
            <mxPoint x="400" y="320" as="targetPoint" />
          </mxGeometry>
        </mxCell>
        <mxCell id="G0BQyAmhGXYiiG6_lD7f-55" value="Donation requests" style="shape=cylinder3;whiteSpace=wrap;html=1;boundedLbl=1;backgroundOutline=1;size=15;" parent="1" vertex="1">
          <mxGeometry x="460" y="100" width="60" height="80" as="geometry" />
        </mxCell>
        <mxCell id="G0BQyAmhGXYiiG6_lD7f-57" style="edgeStyle=orthogonalEdgeStyle;rounded=0;orthogonalLoop=1;jettySize=auto;html=1;exitX=1;exitY=0;exitDx=0;exitDy=0;entryX=0.5;entryY=1;entryDx=0;entryDy=0;entryPerimeter=0;" parent="1" source="PcnVN6I63D8khblwUy3k-7" target="G0BQyAmhGXYiiG6_lD7f-55" edge="1">
          <mxGeometry relative="1" as="geometry" />
        </mxCell>
        <mxCell id="G0BQyAmhGXYiiG6_lD7f-62" style="edgeStyle=orthogonalEdgeStyle;rounded=0;orthogonalLoop=1;jettySize=auto;html=1;exitX=0.145;exitY=1;exitDx=0;exitDy=-4.35;exitPerimeter=0;entryX=0;entryY=0;entryDx=0;entryDy=0;" parent="1" source="G0BQyAmhGXYiiG6_lD7f-59" target="PcnVN6I63D8khblwUy3k-16" edge="1">
          <mxGeometry relative="1" as="geometry">
            <Array as="points">
              <mxPoint x="689" y="362" />
            </Array>
          </mxGeometry>
        </mxCell>
        <mxCell id="G0BQyAmhGXYiiG6_lD7f-59" value="Blood Request" style="shape=cylinder3;whiteSpace=wrap;html=1;boundedLbl=1;backgroundOutline=1;size=15;" parent="1" vertex="1">
          <mxGeometry x="680" y="218" width="60" height="80" as="geometry" />
        </mxCell>
        <mxCell id="G0BQyAmhGXYiiG6_lD7f-60" style="edgeStyle=orthogonalEdgeStyle;rounded=0;orthogonalLoop=1;jettySize=auto;html=1;exitX=0;exitY=0;exitDx=0;exitDy=0;entryX=0.5;entryY=1;entryDx=0;entryDy=0;entryPerimeter=0;" parent="1" source="PcnVN6I63D8khblwUy3k-16" target="G0BQyAmhGXYiiG6_lD7f-59" edge="1">
          <mxGeometry relative="1" as="geometry">
            <Array as="points">
              <mxPoint x="738" y="298" />
            </Array>
          </mxGeometry>
        </mxCell>
        <mxCell id="jdWz_sfot5Q-GCdik925-2" value="Recipient Authentication" style="ellipse;whiteSpace=wrap;html=1;" parent="1" vertex="1">
          <mxGeometry x="950" y="578" width="120" height="80" as="geometry" />
        </mxCell>
        <mxCell id="jdWz_sfot5Q-GCdik925-3" value="Donor Authentication" style="ellipse;whiteSpace=wrap;html=1;aspect=fixed;" parent="1" vertex="1">
          <mxGeometry x="-100" y="470" width="80" height="80" as="geometry" />
        </mxCell>
        <mxCell id="FwBgXzmd3VIJl1MYQJvP-1" value="Recipient Information" style="text;html=1;align=center;verticalAlign=middle;resizable=0;points=[];autosize=1;strokeColor=none;fillColor=none;rotation=90;" vertex="1" parent="1">
          <mxGeometry x="960" y="488" width="140" height="30" as="geometry" />
        </mxCell>
      </root>
    </mxGraphModel>
  </diagram>
</mxfile>
